<svg width="5" height="19" viewBox="0 0 5 19" fill="none" xmlns="http://www.w3.org/2000/svg">
<path d="M1.67931 11.035L1.93707 1.03832L2.93673 1.06409L2.67898 11.0608L1.67931 11.035ZM2.02449 17.0459C1.74191 17.0386 1.5275 16.9437 1.32725 16.7329C1.12699 16.522 1.04331 16.303 1.0506 16.0204C1.05788 15.7379 1.15273 15.5235 1.36359 15.3232C1.57445 15.1229 1.79346 15.0393 2.07604 15.0466C2.35862 15.0538 2.57302 15.1487 2.77328 15.3596C2.97354 15.5704 3.05722 15.7894 3.04993 16.072C3.04264 16.3546 2.94779 16.569 2.73693 16.7692C2.52607 16.9695 2.30707 17.0532 2.02449 17.0459Z" stroke="#1A1A1A" stroke-width="2"/>
</svg>
