<svg width="17" height="24" viewBox="0 0 17 24" fill="none" xmlns="http://www.w3.org/2000/svg">
<path d="M7.28571 4.8H9.71429V2.4H7.28571V4.8ZM8.5 12C6.9619 12 5.49464 11.685 4.09821 11.055C2.70179 10.425 1.33571 9.72 0 8.94V7.2C0 6.54 0.237798 5.975 0.713393 5.505C1.18899 5.035 1.76071 4.8 2.42857 4.8H4.85714V1.2C4.85714 0.86 4.97351 0.575 5.20625 0.345C5.43899 0.115 5.72738 0 6.07143 0H10.9286C11.2726 0 11.561 0.115 11.7937 0.345C12.0265 0.575 12.1429 0.86 12.1429 1.2V4.8H14.5714C15.2393 4.8 15.811 5.035 16.2866 5.505C16.7622 5.975 17 6.54 17 7.2V8.94C15.6643 9.72 14.2982 10.425 12.9018 11.055C11.5054 11.685 10.0381 12 8.5 12ZM2.42857 24V22.8C1.76071 22.8 1.18899 22.565 0.713393 22.095C0.237798 21.625 0 21.06 0 20.4V11.64C1.13333 12.32 2.30208 12.9 3.50625 13.38C4.71042 13.86 5.97024 14.18 7.28571 14.34V15.6H9.71429V14.34C11.0298 14.18 12.2896 13.86 13.4937 13.38C14.6979 12.9 15.8667 12.32 17 11.64V20.4C17 21.06 16.7622 21.625 16.2866 22.095C15.811 22.565 15.2393 22.8 14.5714 22.8V24H12.1429V22.8H4.85714V24H2.42857Z" fill="white"/>
</svg>
