<svg width="30" height="30" viewBox="0 0 30 30" fill="none" xmlns="http://www.w3.org/2000/svg">
<path d="M21.25 11.25C21.25 16.0875 17.05 20 11.875 20L10.7125 21.4L10.025 22.225C9.43751 22.925 8.3125 22.775 7.925 21.9375L6.25 18.25C3.975 16.65 2.5 14.1125 2.5 11.25C2.5 6.4125 6.7 2.5 11.875 2.5C15.65 2.5 18.9125 4.58751 20.375 7.58751C20.9375 8.70001 21.25 9.9375 21.25 11.25Z" stroke="white" stroke-width="1.5" stroke-linecap="round" stroke-linejoin="round"/>
<path d="M27.5004 16.075C27.5004 18.9375 26.0254 21.475 23.7504 23.075L22.0754 26.7625C21.6879 27.6 20.5629 27.7625 19.9754 27.05L18.1254 24.825C15.1004 24.825 12.4004 23.4875 10.7129 21.4L11.8754 20C17.0504 20 21.2504 16.0875 21.2504 11.25C21.2504 9.93752 20.9379 8.70002 20.3754 7.58752C24.4629 8.52502 27.5004 11.975 27.5004 16.075Z" stroke="white" stroke-width="1.5" stroke-linecap="round" stroke-linejoin="round"/>
<path d="M8.75 11.25H15" stroke="white" stroke-width="1.5" stroke-linecap="round" stroke-linejoin="round"/>
</svg>
