<svg width="22" height="23" viewBox="0 0 22 23" fill="none" xmlns="http://www.w3.org/2000/svg">
<path d="M13.2002 0.400391C14.0125 0.400435 14.6893 0.679011 15.2549 1.24219C15.8205 1.80534 16.0996 2.47887 16.0996 3.28613C16.0996 3.46255 16.0839 3.62187 16.0537 3.76465C16.0224 3.91284 15.9747 4.06838 15.9092 4.23145L15.6885 4.78125H21.5996V10.5527H19.4004V22.5996H2.59961V10.5527H0.400391V4.78125H6.40137L6.06934 4.18652C6.00063 4.06338 5.95673 3.93489 5.93652 3.80078C5.9123 3.63983 5.90041 3.4684 5.90039 3.28613C5.90039 2.47887 6.17952 1.80534 6.74512 1.24219C7.31074 0.679011 7.98754 0.400435 8.7998 0.400391C9.17104 0.400391 9.51176 0.468551 9.82617 0.601562C10.1518 0.739339 10.4555 0.930017 10.7363 1.17676L11.0088 1.41602L11.2734 1.16797C11.5515 0.907397 11.8487 0.716881 12.165 0.59082C12.4815 0.464796 12.8257 0.400391 13.2002 0.400391ZM4 21.21H10.2998V10.5527H4V21.21ZM11.7002 21.21H18V10.5527H11.7002V21.21ZM1.7998 9.16211H10.2998V6.17188H1.7998V9.16211ZM11.7002 9.16211H20.2002V6.17188H11.7002V9.16211ZM8.7998 1.79004C8.38817 1.79008 8.02396 1.9335 7.73438 2.22168C7.44461 2.51019 7.2998 2.87453 7.2998 3.28613C7.2999 3.69756 7.44471 4.0612 7.73438 4.34961C8.02397 4.63784 8.38813 4.7812 8.7998 4.78125C9.21166 4.78125 9.57654 4.63803 9.86621 4.34961C10.1558 4.06121 10.2997 3.69752 10.2998 3.28613C10.2998 2.87454 10.156 2.51019 9.86621 2.22168C9.57654 1.93326 9.21166 1.79004 8.7998 1.79004ZM13.2002 1.79004C12.7883 1.79004 12.4235 1.93326 12.1338 2.22168C11.844 2.51019 11.7002 2.87454 11.7002 3.28613C11.7003 3.69752 11.8442 4.06121 12.1338 4.34961C12.4235 4.63803 12.7883 4.78125 13.2002 4.78125C13.6119 4.7812 13.976 4.63784 14.2656 4.34961C14.5553 4.0612 14.7001 3.69756 14.7002 3.28613C14.7002 2.87453 14.5554 2.51019 14.2656 2.22168C13.976 1.9335 13.6118 1.79008 13.2002 1.79004Z" stroke="#1A1A1A" stroke-width="0.8"/>
</svg>
