<svg width="22" height="22" viewBox="0 0 22 22" fill="none" xmlns="http://www.w3.org/2000/svg">
<path d="M18 14.4004C18.9931 14.4004 19.8331 14.7491 20.542 15.458C21.2509 16.1669 21.5996 17.0069 21.5996 18C21.5996 18.9931 21.2509 19.8331 20.542 20.542C19.8331 21.2509 18.9931 21.5996 18 21.5996C17.0069 21.5996 16.1669 21.2509 15.458 20.542C14.7491 19.8331 14.4004 18.9931 14.4004 18C14.4004 17.0069 14.7491 16.1669 15.458 15.458C16.1669 14.7491 17.0069 14.4004 18 14.4004ZM3.40039 7.54297L3.10352 7.46387C2.3188 7.25251 1.67484 6.83279 1.16113 6.19824C0.654343 5.57221 0.400391 4.84532 0.400391 4C0.400391 3.00693 0.749091 2.16693 1.45801 1.45801C2.16693 0.749091 3.00693 0.400391 4 0.400391C4.84532 0.400391 5.57221 0.654343 6.19824 1.16113C6.83279 1.67484 7.25251 2.3188 7.46387 3.10352L7.54297 3.40039H14.4316L14.5117 3.10352C14.7231 2.31896 15.142 1.67477 15.7764 1.16113C16.4011 0.655432 17.1362 0.400391 18 0.400391C18.9931 0.400391 19.8331 0.749091 20.542 1.45801C21.2509 2.16692 21.5996 3.00693 21.5996 4C21.5996 4.99307 21.2509 5.83307 20.542 6.54199C19.8331 7.25091 18.9931 7.59961 18 7.59961C17.1362 7.59961 16.4011 7.34457 15.7764 6.83887C15.142 6.32523 14.7231 5.68104 14.5117 4.89648L14.4316 4.59961H7.54102L7.46289 4.89844C7.29742 5.53025 6.98709 6.0715 6.5293 6.5293C6.0715 6.98709 5.53025 7.29742 4.89844 7.46289L4.59961 7.54102V14.4316L4.89648 14.5117C5.68104 14.7231 6.32523 15.142 6.83887 15.7764C7.34457 16.4011 7.59961 17.1362 7.59961 18C7.59961 18.9931 7.25091 19.8331 6.54199 20.542C5.83307 21.2509 4.99307 21.5996 4 21.5996C3.00693 21.5996 2.16692 21.2509 1.45801 20.542C0.749091 19.8331 0.400391 18.9931 0.400391 18C0.400391 17.1362 0.655432 16.4011 1.16113 15.7764C1.67477 15.142 2.31896 14.7231 3.10352 14.5117L3.40039 14.4316V7.54297Z" stroke="black" stroke-width="0.8"/>
</svg>
